<?xml version="1.0" encoding="UTF-8" standalone="no"?>
<!-- Created with Inkscape (http://www.inkscape.org/) -->

<svg
   xmlns:dc="http://purl.org/dc/elements/1.1/"
   xmlns:cc="http://creativecommons.org/ns#"
   xmlns:rdf="http://www.w3.org/1999/02/22-rdf-syntax-ns#"
   xmlns:svg="http://www.w3.org/2000/svg"
   xmlns="http://www.w3.org/2000/svg"
   xmlns:sodipodi="http://sodipodi.sourceforge.net/DTD/sodipodi-0.dtd"
   xmlns:inkscape="http://www.inkscape.org/namespaces/inkscape"
   height="524.49304"
   id="svg1"
   inkscape:version="0.92.4 (5da689c313, 2019-01-14)"
   sodipodi:docname="black_knight.svg"
   sodipodi:version="0.32"
   width="534.36389"
   inkscape:output_extension="org.inkscape.output.svg.inkscape"
   version="1.0"
   inkscape:export-filename="C:\joanna\Gfx\drawings_vector\admin\thumbs\Igor Krizanovskij\chess_set_symbols_igor_k_01_ok.png"
   inkscape:export-xdpi="51.457458"
   inkscape:export-ydpi="51.457458">
  <metadata
     id="metadata3">
    <rdf:RDF>
      <cc:Work
         rdf:about="">
        <dc:title>Chess Set Symbols</dc:title>
        <dc:description />
        <dc:subject>
          <rdf:Bag>
            <rdf:li />
            <rdf:li>game</rdf:li>
            <rdf:li>chess</rdf:li>
            <rdf:li>symbols</rdf:li>
            <rdf:li>board</rdf:li>
            <rdf:li>recreation</rdf:li>
            <rdf:li>fonts</rdf:li>
          </rdf:Bag>
        </dc:subject>
        <dc:publisher>
          <cc:Agent
             rdf:about="http://www.openclipart.org">
            <dc:title>Igor Krizanovskij</dc:title>
          </cc:Agent>
        </dc:publisher>
        <dc:creator>
          <cc:Agent>
            <dc:title>Igor Krizanovskij</dc:title>
          </cc:Agent>
        </dc:creator>
        <dc:rights>
          <cc:Agent>
            <dc:title>Igor Krizanovskij</dc:title>
          </cc:Agent>
        </dc:rights>
        <dc:date />
        <dc:format>image/svg+xml</dc:format>
        <dc:type
           rdf:resource="http://purl.org/dc/dcmitype/StillImage" />
        <cc:license
           rdf:resource="http://web.resource.org/cc/PublicDomain" />
        <dc:language>en</dc:language>
      </cc:Work>
      <cc:License
         rdf:about="http://web.resource.org/cc/PublicDomain">
        <cc:permits
           rdf:resource="http://web.resource.org/cc/Reproduction" />
        <cc:permits
           rdf:resource="http://web.resource.org/cc/Distribution" />
        <cc:permits
           rdf:resource="http://web.resource.org/cc/DerivativeWorks" />
      </cc:License>
    </rdf:RDF>
  </metadata>
  <defs
     id="defs3">
    <inkscape:perspective
       sodipodi:type="inkscape:persp3d"
       inkscape:vp_x="0 : 187.5 : 1"
       inkscape:vp_y="0 : 1000 : 0"
       inkscape:vp_z="1052.3622 : 187.5 : 1"
       inkscape:persp3d-origin="526.18109 : 125 : 1"
       id="perspective20" />
  </defs>
  <sodipodi:namedview
     bordercolor="#666666"
     borderopacity="1.0"
     id="base"
     inkscape:current-layer="layer1"
     inkscape:cx="-74.792265"
     inkscape:cy="114.6968"
     inkscape:pageopacity="0.0"
     inkscape:pageshadow="2"
     inkscape:window-height="1001"
     inkscape:window-width="1920"
     inkscape:window-x="-9"
     inkscape:window-y="-9"
     inkscape:zoom="0.80058132"
     pagecolor="#ffffff"
     showgrid="false"
     inkscape:pagecheckerboard="true"
     fit-margin-top="0"
     fit-margin-left="0"
     fit-margin-right="0"
     fit-margin-bottom="0"
     inkscape:window-maximized="1" />
  <g
     id="layer1"
     inkscape:groupmode="layer"
     inkscape:label="Layer 1"
     transform="translate(-720.92068,348.17242)">
    <path
       d="m 854.43526,-136.51388 c 13.70939,0 28.24147,-7.95159 43.59606,-23.85451 8.2257,-8.22563 12.33854,-15.35465 12.33854,-21.38681 0,-7.12902 -6.58055,-10.69347 -19.74166,-10.69347 -15.35453,0 -28.24147,6.85479 -38.66064,20.56424 -5.48395,6.58062 -8.2257,13.43534 -8.2257,20.56437 0,9.87077 3.56438,14.80618 10.6934,14.80618 m -13.98374,-180.14257 c 1.0968,0 3.83861,-0.27423 8.22569,-0.82263 24.67715,0 50.99925,8.22582 78.96661,24.67714 3.29022,2.19354 4.93548,3.29022 4.93548,3.29022 15.90293,-25.77382 27.96724,-38.6607 36.19293,-38.6607 17.54813,9.87083 29.06423,20.56423 34.54797,32.08014 2.7419,5.48388 6.8547,16.99973 12.3385,34.54792 4.387,-1.09686 8.774,-1.64507 13.1611,-1.64507 46.0638,0 89.9341,28.24146 131.6111,84.72457 49.9025,65.25716 74.8537,154.094412 74.8537,266.512201 0,25.225489 -1.0967,47.983139 -3.2902,68.273269 H 884.87021 c 1.09686,-36.74146 14.53202,-71.563483 40.3059,-104.466327 2.74195,-4.387016 6.58056,-9.322369 11.51598,-14.806187 20.29007,-25.773759 32.62855,-45.5154273 37.01562,-59.225004 2.19348,-7.128829 3.83862,-14.532019 4.93542,-22.209313 -36.19306,14.25785 -63.33785,35.3704888 -81.43438,63.337852 -8.22569,13.709385 -17.27383,27.967363 -27.14479,42.77355 -2.74194,4.38708 -6.85479,6.58062 -12.33848,6.58062 -13.70945,0 -20.56417,-8.499864 -20.56417,-25.499655 -5.48395,7.128894 -11.79027,10.693404 -18.9191,10.693404 0,0 -5.48388,-1.371034 -16.45139,-4.112848 -23.58029,-6.032282 -40.30585,-16.451453 -50.17681,-31.257704 -3.29021,-4.935354 -6.85466,-11.5159097 -10.6934,-19.741541 3.83874,-23.580411 22.75784,-70.466808 56.75736,-140.659387 24.67708,-50.45091 40.03174,-86.64394 46.06389,-108.57903 0.54827,-4.93541 0.82251,-12.06424 0.82251,-21.3868 0,-7.6773 -1.37097,-22.48348 -4.11285,-44.41869 m -49.35411,288.721619 c -13.16111,0 -21.9352,5.757923 -26.32222,17.27396 -1.09674,2.7418769 -1.64514,5.483754 -1.64514,8.2256948 0,2.19347619 0.82251,4.935417 2.46771,8.2256313 14.25785,0 23.03194,-6.03215511 26.32216,-18.0964011 0.54846,-1.645139 0.82263,-3.564575 0.82263,-5.757987 0,-1.096802 -0.5484,-4.387016 -1.64514,-9.870898 M 1194.9787,98.740809 V 68.305801 c 0,-89.385907 -22.7577,-162.594465 -68.2731,-219.625861 -39.4835,-49.35424 -75.4023,-74.03124 -107.7566,-74.03124 0,0 -3.2903,-0.5484 -9.8709,-1.64514 -1.0967,0.54834 -1.9193,1.09674 -2.4677,1.64514 -7.12886,0 -10.69331,3.01605 -10.69331,9.04814 0,2.1936 1.64514,4.93548 4.93531,8.22582 29.6125,2.74181 61.9669,23.85437 97.0632,63.33783 44.4187,51.54752 66.6281,126.127176 66.6281,223.738523 0,0 0,1.645267 0,4.935481 0,24.128746 5.2095,36.193126 15.6287,36.193126 8.7742,0 13.7096,-7.12902 14.8063,-21.386811"
       id="path1726"
       style="font-style:normal;font-weight:normal;font-size:12px;font-family:'Bitstream Vera Sans';fill:#000000;fill-opacity:1;stroke:#ffffff;stroke-width:40;stroke-linecap:round;stroke-linejoin:round;stroke-miterlimit:4;stroke-dasharray:none;stroke-opacity:1;paint-order:markers stroke fill"
       inkscape:connector-curvature="0"
       inkscape:export-xdpi="51.457458"
       inkscape:export-ydpi="51.457458" />
    <path
       style="fill:#ffffff;fill-opacity:1;stroke:none;stroke-width:49.96369553;stroke-linecap:round;stroke-linejoin:round;stroke-miterlimit:4;stroke-dasharray:none;stroke-opacity:1;paint-order:markers stroke fill"
       d="m 106.76221,-220.34053 c -4.10615,-4.40744 -4.05995,-16.07384 0.0959,-24.22001 3.79979,-7.4482 15.50392,-19.01678 22.90114,-22.6359 16.20649,-7.9291 39.34221,-4.98274 39.23663,4.99683 -0.10178,9.61891 -18.59176,30.13527 -34.86612,38.6872 -12.06555,6.34027 -23.21218,7.63216 -27.36756,3.17188 z"
       id="path820"
       inkscape:connector-curvature="0"
       transform="translate(740.92061,80.280773)" />
    <path
       style="fill:#ffffff;fill-opacity:1;stroke:none;stroke-width:49.96369553;stroke-linecap:round;stroke-linejoin:round;stroke-miterlimit:4;stroke-dasharray:none;stroke-opacity:1;paint-order:markers stroke fill"
       d="m 432.69819,36.334255 c -6.53295,-5.497118 -7.6845,-12.028822 -8.90219,-50.494496 -3.27821,-103.554399 -26.18013,-169.840889 -76.75783,-222.165059 -30.19581,-31.23848 -51.78091,-44.83866 -82.95672,-52.26875 -2.36115,-0.56274 -5.39828,-2.55673 -6.84436,-4.4936 -2.40042,-3.21511 -2.45463,-3.74081 -0.7073,-6.85971 3.01118,-5.37482 9.55534,-6.87582 23.00306,-5.2761 19.99078,2.37806 34.32789,8.14806 53.12157,21.37889 11.15183,7.85094 38.58935,34.95736 50.45291,49.84408 34.89078,43.78191 56.85361,96.03403 65.74599,156.417348 3.20101,21.73628 5.33353,58.714598 4.77413,82.7838326 -0.40994,17.6381584 -0.79505,20.6597754 -3.27894,25.7265684 -4.36395,8.901819 -11.05939,10.952904 -17.65032,5.406996 z"
       id="path822"
       inkscape:connector-curvature="0"
       transform="translate(740.92061,80.280773)" />
    <path
       style="fill:#ffffff;fill-opacity:1;stroke:none;stroke-width:49.96369553;stroke-linecap:round;stroke-linejoin:round;stroke-miterlimit:4;stroke-dasharray:none;stroke-opacity:1;paint-order:markers stroke fill"
       d="m 23.399043,-79.858078 c -1.121602,-5.97865 1.208358,-13.279825 5.967697,-18.700414 4.604802,-5.244578 8.966801,-7.679928 15.677762,-8.753058 l 4.939938,-0.78992 0.762729,5.56471 c 1.977379,14.426555 -8.938197,27.170994 -23.271878,27.170994 -2.722982,0 -3.366541,-0.709247 -4.076248,-4.492312 z"
       id="path824"
       inkscape:connector-curvature="0"
       transform="translate(740.92061,80.280773)" />
  </g>
</svg>
