<?xml version="1.0" encoding="UTF-8" standalone="no"?>
<!-- Created with Inkscape (http://www.inkscape.org/) -->

<svg
   xmlns:dc="http://purl.org/dc/elements/1.1/"
   xmlns:cc="http://creativecommons.org/ns#"
   xmlns:rdf="http://www.w3.org/1999/02/22-rdf-syntax-ns#"
   xmlns:svg="http://www.w3.org/2000/svg"
   xmlns="http://www.w3.org/2000/svg"
   xmlns:sodipodi="http://sodipodi.sourceforge.net/DTD/sodipodi-0.dtd"
   xmlns:inkscape="http://www.inkscape.org/namespaces/inkscape"
   height="503.67484"
   id="svg1"
   inkscape:version="0.92.4 (5da689c313, 2019-01-14)"
   sodipodi:docname="white_queen.svg"
   sodipodi:version="0.32"
   width="537.40765"
   inkscape:output_extension="org.inkscape.output.svg.inkscape"
   version="1.0"
   inkscape:export-filename="C:\joanna\Gfx\drawings_vector\admin\thumbs\Igor Krizanovskij\chess_set_symbols_igor_k_01_ok.png"
   inkscape:export-xdpi="51.457458"
   inkscape:export-ydpi="51.457458">
  <metadata
     id="metadata3">
    <rdf:RDF>
      <cc:Work
         rdf:about="">
        <dc:title>Chess Set Symbols</dc:title>
        <dc:description />
        <dc:subject>
          <rdf:Bag>
            <rdf:li />
            <rdf:li>game</rdf:li>
            <rdf:li>chess</rdf:li>
            <rdf:li>symbols</rdf:li>
            <rdf:li>board</rdf:li>
            <rdf:li>recreation</rdf:li>
            <rdf:li>fonts</rdf:li>
          </rdf:Bag>
        </dc:subject>
        <dc:publisher>
          <cc:Agent
             rdf:about="http://www.openclipart.org">
            <dc:title>Igor Krizanovskij</dc:title>
          </cc:Agent>
        </dc:publisher>
        <dc:creator>
          <cc:Agent>
            <dc:title>Igor Krizanovskij</dc:title>
          </cc:Agent>
        </dc:creator>
        <dc:rights>
          <cc:Agent>
            <dc:title>Igor Krizanovskij</dc:title>
          </cc:Agent>
        </dc:rights>
        <dc:date />
        <dc:format>image/svg+xml</dc:format>
        <dc:type
           rdf:resource="http://purl.org/dc/dcmitype/StillImage" />
        <cc:license
           rdf:resource="http://web.resource.org/cc/PublicDomain" />
        <dc:language>en</dc:language>
      </cc:Work>
      <cc:License
         rdf:about="http://web.resource.org/cc/PublicDomain">
        <cc:permits
           rdf:resource="http://web.resource.org/cc/Reproduction" />
        <cc:permits
           rdf:resource="http://web.resource.org/cc/Distribution" />
        <cc:permits
           rdf:resource="http://web.resource.org/cc/DerivativeWorks" />
      </cc:License>
    </rdf:RDF>
  </metadata>
  <defs
     id="defs3">
    <inkscape:perspective
       sodipodi:type="inkscape:persp3d"
       inkscape:vp_x="0 : 187.5 : 1"
       inkscape:vp_y="0 : 1000 : 0"
       inkscape:vp_z="1052.3622 : 187.5 : 1"
       inkscape:persp3d-origin="526.18109 : 125 : 1"
       id="perspective20" />
  </defs>
  <sodipodi:namedview
     bordercolor="#666666"
     borderopacity="1.0"
     id="base"
     inkscape:current-layer="layer1"
     inkscape:cx="193.86717"
     inkscape:cy="259.13405"
     inkscape:pageopacity="0.0"
     inkscape:pageshadow="2"
     inkscape:window-height="1001"
     inkscape:window-width="1920"
     inkscape:window-x="-9"
     inkscape:window-y="-9"
     inkscape:zoom="1.3674339"
     pagecolor="#ffffff"
     showgrid="false"
     inkscape:pagecheckerboard="true"
     fit-margin-top="0"
     fit-margin-left="0"
     fit-margin-right="0"
     fit-margin-bottom="0"
     inkscape:window-maximized="1" />
  <g
     id="layer1"
     inkscape:groupmode="layer"
     inkscape:label="Layer 1"
     transform="translate(-212.78988,184.52521)">
    <path
       d="m 465.34412,137.65374 h 31.58146 c 7.17699,0 15.79006,0.23912 25.83932,0.71765 l 71.05824,4.30662 h 0.71781 c 8.61252,0 12.91897,-1.19635 12.91964,-3.58881 v -2.87109 c -6.7e-4,-14.35516 -31.82126,-23.68604 -95.46215,-27.99255 -11.48478,-0.95711 -21.53332,-1.43558 -30.14583,-1.43558 -46.89428,0 -83.02093,4.78509 -108.38178,14.35527 -11.48417,4.30645 -17.22625,9.33077 -17.22625,15.07286 v 2.87109 c 0,2.39246 4.30661,3.58881 12.91969,3.58881 l 96.17985,-5.02427 m 132.78558,32.29911 c -37.80263,-4.78503 -76.5617,-7.17761 -116.27709,-7.17761 -41.63072,0 -80.38923,2.39258 -116.27715,7.17761 5.74209,4.78503 8.61307,14.11592 8.61307,27.99272 0,9.09159 -1.43546,14.59438 -4.30645,16.50843 28.71031,-5.26356 66.03336,-7.89536 111.97053,-7.89536 45.936,0 83.2595,2.6318 111.97053,7.89536 -2.87166,-1.91405 -4.30718,-7.41684 -4.30662,-16.50843 -5.6e-4,-13.8768 2.87054,-23.20769 8.61318,-27.99272 M 481.85261,231.6802 c -24.40447,0 -51.67937,1.19628 -81.8247,3.58886 -23.4468,1.91393 -35.17026,7.41689 -35.17026,16.50849 0,11.96258 38.9983,17.94395 116.99496,17.94395 77.99594,0 116.99424,-5.98137 116.99479,-17.94395 -5.5e-4,-3.8281 -3.11083,-7.4169 -9.33088,-10.76647 -18.18381,-6.22055 -54.07183,-9.33088 -107.66391,-9.33088 m 0,-375.38847 c -11.96336,0 -17.94468,5.74208 -17.94396,17.22625 -7.2e-4,12.44117 5.9806,18.66178 17.94396,18.66178 11.4835,0 17.22558,-6.22061 17.22614,-18.66178 -5.6e-4,-11.48417 -5.74264,-17.22625 -17.22614,-17.22625 m 0,-20.81494 c 17.22558,0 29.18828,7.89525 35.88791,23.68604 l 3.58881,14.35515 v 2.15334 c -6.2e-4,2.87099 -1.91461,8.85236 -5.74209,17.94396 -6.69963,19.618822 -10.04915,36.605728 -10.04859,50.960882 -5.6e-4,23.446917 5.263,58.1386567 15.79068,104.075274 25.83876,-54.5496878 38.75851,-95.701327 38.75906,-123.454752 l -4.3065,-30.863644 c -7.3e-4,-16.74773 7.41617,-28.71042 22.25057,-35.88803 5.26284,-2.87098 11.00492,-4.30645 17.22614,-4.30645 17.2257,0 29.42757,7.65596 36.60573,22.96823 2.87054,5.74208 4.30607,11.48416 4.30662,17.22625 -5.5e-4,12.441161 -4.30717,22.250573 -12.91969,29.428179 -12.92024,12.919689 -19.61943,33.973923 -20.09724,63.162813 -5.5e-4,12.44127473 1.19562,32.538513 3.58881,60.291883 31.10232,-32.059933 46.65371,-58.138602 46.65437,-78.23584 l -3.58874,-27.992715 c -7.3e-4,-15.790676 7.17688,-27.514079 21.53276,-35.170099 5.74147,-3.349623 11.72273,-5.024434 17.94401,-5.024434 16.26859,0 28.47046,7.416895 36.60567,22.250575 l 4.30662,13.637506 v 4.306452 c -5.5e-4,19.618879 -11.00625,34.452615 -33.01693,44.501151 -0.95766,20.5758197 -8.85302,61.009587 -23.68604,121.301469 -0.95766,2.8711 -1.67548,5.50279 -2.15333,7.89537 -6.2e-4,6.69908 -7.65669,18.18324 -22.9684,34.45245 -20.57637,20.57582 -30.8642,36.60573 -30.86364,48.08995 -5.6e-4,5.2635 5.74153,19.37959 17.22625,42.34781 1.91355,4.30662 2.87043,10.76636 2.87099,19.37959 v 5.02427 c -0.47908,1.43547 -0.71838,3.11028 -0.71765,5.02427 v 0.71781 l 0.71765,0.71771 c -5.6e-4,17.22625 -46.17647,26.79643 -138.52767,28.71042 -6.22105,0 -12.20243,0 -17.94396,0 l -30.14583,-0.71776 h -0.71781 c -44.98024,-1.43552 -79.19289,-5.26356 -102.63964,-11.48422 -14.83374,-4.30646 -22.25058,-9.80925 -22.25058,-16.50844 0.47853,-0.47841 0.47853,-3.34951 0,-8.61307 -0.47858,-0.957 -0.47858,-1.91405 0,-2.87099 0,-11.0057 3.5888,-23.68609 10.76641,-38.04136 5.74208,-11.48406 8.61307,-19.37942 8.61307,-23.68604 0,-7.65619 -4.06727,-16.74778 -12.20188,-27.2749 l -35.17032,-40.19453 c -3.82798,-5.26356 -5.74208,-10.288 -5.74208,-15.07297 C 276.81245,53.914994 268.43867,14.438277 266.52457,-3.7450815 c -0.47847,-3.8280931 -0.71776,-7.4168955 -0.71776,-10.7664075 -22.01129,-10.048536 -33.01693,-24.882272 -33.01693,-44.501151 0,-15.790676 7.17755,-27.514079 21.5327,-35.170099 6.22061,-3.349623 12.44128,-5.024434 18.66178,-5.024434 16.74778,0 28.71047,7.65613 35.88813,22.968392 2.87099,5.263558 4.30646,11.005642 4.30646,17.226141 l -3.58881,27.992715 c 0,21.0542895 15.31221,47.132903 45.93662,78.23584 2.39257,-21.054346 3.5888,-41.1515843 3.5888,-60.291883 0,-26.317793 -3.11027,-43.783391 -9.33077,-52.396461 -2.39258,-3.349512 -5.98138,-7.17755 -10.76647,-11.484169 -8.61312,-5.742084 -12.91969,-15.31215 -12.91969,-28.710362 0,-16.74773 7.89537,-28.9496 23.68616,-36.60568 5.26356,-2.39262 11.0057,-3.5888 17.22614,-3.5888 16.74778,0 28.71047,7.65596 35.88808,22.96823 2.87037,5.26355 4.30589,11.00569 4.30645,17.22625 l -4.30645,30.145883 v 0.717761 c 0,27.274844 12.91897,68.4265387 38.75907,123.454752 10.04798,-43.5440452 15.0723,-78.235896 15.07286,-104.075274 -5.6e-4,-19.140187 -3.58936,-37.323435 -10.76641,-54.549692 -2.87154,-6.69907 -4.30712,-11.48416 -4.30645,-14.35515 -6.7e-4,-16.74778 7.6554,-28.71036 22.96822,-35.88808 5.26295,-2.87099 11.00503,-4.30645 17.22631,-4.30645 m 207.43262,88.284429 c -7.65674,0 -13.15954,3.828093 -16.50849,11.484168 -0.47914,1.914046 -0.71843,3.827982 -0.71782,5.741973 -6.1e-4,9.570177 4.30595,15.551551 12.91969,17.944123 1.43491,0.478415 2.87054,0.717705 4.30662,0.717705 11.96197,0 17.94334,-6.220554 17.94396,-18.661828 -6.2e-4,-11.484057 -5.98199,-17.226141 -17.94396,-17.226141 M 595.2586,-122.1754 c -8.13521,0 -13.638,4.06733 -16.50843,12.20187 l -0.71771,5.74209 c -6.7e-4,8.613069 4.06661,14.355153 12.20187,17.226251 1.43491,0.47847 3.10967,0.717705 5.02427,0.717705 12.44061,0 18.66122,-5.981264 18.66178,-17.943956 -5.6e-4,-11.96258 -6.22117,-17.94396 -18.66178,-17.94396 m -228.24767,0 c -11.96258,0 -17.94396,5.98138 -17.94396,17.94396 0,11.962692 5.98138,17.943956 17.94396,17.943956 11.48422,0 17.22631,-5.981264 17.22631,-17.943956 0,-11.96258 -5.74209,-17.94396 -17.22631,-17.94396 m -94.02657,45.936619 c -11.96259,0 -17.94396,5.742084 -17.94396,17.226141 0,12.441274 5.98137,18.661828 17.94396,18.661828 11.48422,0 17.2263,-6.220554 17.2263,-18.661828 0,-8.13449 -4.06732,-13.637339 -12.20187,-16.508437 -1.43563,-0.478414 -3.11033,-0.717704 -5.02443,-0.717704 m 208.86825,45.936672 c -6.69975,42.108524 -15.31287,72.493644 -25.83938,91.155418 l -10.76635,17.226307 v 0.717816 c -1.43619,-1.435632 -7.65674,-8.613237 -18.66177,-21.532926 -13.87736,-16.269201 -28.47125,-47.132847 -43.7834,-92.590939 0.957,6.699024 1.43553,13.637394 1.43553,20.814944 0,22.4898662 -4.06733,57.181606 -12.20199,104.075273 -25.83927,-15.312261 -50.96088,-39.716118 -75.3648,-73.211627 8.13466,41.15164 14.35533,68.187248 18.66178,81.106937 2.87109,9.570126 6.4599,15.072976 10.7664,16.508436 39.23754,-22.489699 91.15498,-33.734632 155.75398,-33.734632 65.07625,0 116.99424,11.244933 155.75381,33.734632 8.61251,-2.87099 18.18269,-35.409388 28.71047,-97.615373 -24.88294,34.45256 -49.76537,58.856473 -74.64703,73.211627 -8.13527,-41.630165 -12.20249,-74.407802 -12.20188,-98.3331334 -6.1e-4,-6.2205536 0.47781,-15.0729706 1.43547,-26.5570836 -9.57074,28.7103651 -20.57638,54.310397 -33.01693,76.800263 -6.69975,10.048592 -14.11664,19.618769 -22.25063,28.710365 -3.82859,3.828038 -6.22117,6.699135 -7.17755,8.613237 L 502.66755,50.804717 c -0.47897,-1.913991 -1.19678,-3.828037 -2.15317,-5.742084 -3.82865,-10.527117 -10.04926,-35.6487348 -18.66177,-75.364742"
       id="path1715"
       style="font-style:normal;font-weight:normal;font-size:12px;font-family:'Bitstream Vera Sans';fill:#000000;fill-opacity:1;stroke:#ffffff;stroke-width:40;stroke-linecap:round;stroke-linejoin:round;stroke-miterlimit:4;stroke-dasharray:none;stroke-opacity:1;paint-order:markers stroke fill"
       inkscape:connector-curvature="0"
       inkscape:export-xdpi="51.457458"
       inkscape:export-ydpi="51.457458" />
    <path
       style="fill:#ffffff;fill-opacity:1;stroke:none;stroke-width:29.25187111;stroke-linecap:round;stroke-linejoin:round;stroke-miterlimit:4;stroke-dasharray:none;stroke-opacity:1;paint-order:markers stroke fill"
       d="m 126.99104,-74.395339 c -2.91734,-0.889034 -2.92511,-0.901387 -2.89888,-4.605808 0.0201,-2.8426 0.46953,-4.293667 1.91479,-6.182518 7.26183,-9.490699 39.71889,-18.369215 80.32979,-21.973935 16.35134,-1.45138 61.3755,-1.25843 79.3457,0.34004 56.00632,4.98184 82.22674,12.005602 87.67441,23.485688 1.77154,3.733258 1.53173,6.749784 -0.65027,8.179485 -3.07748,2.016442 -9.60802,1.955605 -47.16846,-0.439411 -56.74121,-3.618064 -79.00196,-3.684906 -140.14401,-0.420809 -54.0724,2.88668 -54.22377,2.890871 -58.40307,1.617268 z"
       id="path814"
       inkscape:connector-curvature="0"
       transform="translate(232.78988,215.75111)" />
    <path
       style="fill:#ffffff;fill-opacity:1;stroke:none;stroke-width:29.25187111;stroke-linecap:round;stroke-linejoin:round;stroke-miterlimit:4;stroke-dasharray:none;stroke-opacity:1;paint-order:markers stroke fill"
       d="m 90.777133,-103.86493 c -3.94511,-3.31959 -6.351388,-8.69916 -10.583756,-23.66145 -3.899378,-13.78511 -15.381137,-66.47336 -14.839736,-68.09757 0.13898,-0.41694 2.752713,2.48034 5.808295,6.4384 13.455756,17.42996 32.022994,36.79652 45.956604,47.93504 6.82999,5.4599 20.88583,15.20563 21.9304,15.20563 0.58861,0 4.79406,-25.19292 7.62972,-45.70605 3.20414,-23.17873 4.26556,-35.40019 4.72627,-54.41914 l 0.4502,-18.5856 2.81204,7.9818 c 8.99234,25.52429 22.36667,54.77158 31.07161,67.94813 3.9921,6.04278 25.37296,31.82096 26.37889,31.80413 0.61414,-0.0102 11.90804,-18.47902 14.5295,-23.75987 7.346,-14.79829 14.98544,-41.63719 20.29527,-71.30143 1.04393,-5.83209 1.97681,-10.89983 2.07306,-11.26165 0.0963,-0.36181 1.58658,5.72623 3.31183,13.52899 5.33456,24.12662 11.00927,46.63023 14.08039,55.83716 2.15579,6.46285 4.90143,12.31519 10.30844,21.97249 4.05351,7.23984 7.7386,13.57238 8.1891,14.0723 1.23503,1.37053 15.15957,-14.57842 26.01326,-29.79518 8.24859,-11.56441 21.69242,-39.74127 30.88814,-64.73831 2.21569,-6.02299 4.39649,-11.93815 4.84621,-13.14479 0.68137,-1.82815 0.74429,-1.3405 0.37749,2.92513 -1.37406,15.97893 0.0143,43.76655 3.40816,68.21573 2.50068,18.01449 7.60715,47.53783 8.35098,48.28166 0.99254,0.99253 17.9893,-11.19336 29.08167,-20.85021 12.05222,-10.49249 28.22629,-28.35143 40.05102,-44.22317 2.60135,-3.49167 4.78327,-6.28888 4.84869,-6.21602 0.1948,0.21691 -6.00078,33.17111 -7.72422,41.08508 -6.09673,27.9959 -12.61358,47.09856 -17.85608,52.34106 l -1.88067,1.88067 -11.3527,-5.63761 c -28.14359,-13.97578 -58.6465,-21.84212 -102.05874,-26.31975 -12.28703,-1.26731 -58.58817,-1.73126 -73.93294,-0.74082 -46.80585,3.02108 -85.1637,12.39439 -116.80798,28.54377 l -8.282367,4.22684 z"
       id="path816"
       inkscape:connector-curvature="0"
       transform="translate(232.78988,215.75111)" />
    <path
       style="fill:#ffffff;fill-opacity:1;stroke:none;stroke-width:29.25187111;stroke-linecap:round;stroke-linejoin:round;stroke-miterlimit:4;stroke-dasharray:none;stroke-opacity:1;paint-order:markers stroke fill"
       d="m 139.5446,-3.9421761 c 4.2283,-8.4758229 2.02142,-31.5620989 -3.73906,-39.1144739 l -1.84625,-2.420561 2.7319,-0.430444 c 30.04748,-4.734352 92.93129,-7.620159 137.17604,-6.295158 34.53603,1.034252 69.25577,3.531007 87.60401,6.299749 l 2.65911,0.40126 -2.36388,3.512725 c -2.89098,4.295972 -4.57849,10.723116 -5.22306,19.892758 -0.53425,7.600329 0.51971,15.9354205 2.37665,18.7954505 1.03289,1.5908403 1.01641,1.6851191 -0.22871,1.3081956 -2.64787,-0.8015649 -22.04784,-3.3300491 -33.88453,-4.416321 -47.90975,-4.3967551 -113.46487,-4.1069261 -158.32575,0.6999812 -10.87065,1.1648059 -24.77172,3.0762072 -26.83777,3.6902011 -1.15166,0.3422542 -1.15887,0.2018064 -0.0987,-1.9233625 z"
       id="path818"
       inkscape:connector-curvature="0"
       transform="translate(232.78988,215.75111)" />
    <path
       style="fill:#ffffff;fill-opacity:1;stroke:none;stroke-width:29.25187111;stroke-linecap:round;stroke-linejoin:round;stroke-miterlimit:4;stroke-dasharray:none;stroke-opacity:1;paint-order:markers stroke fill"
       d="m 212.91841,53.131681 c -60.10573,-2.027556 -85.77893,-8.839012 -79.41518,-21.069949 2.88735,-5.549402 11.9945,-9.54123 26.03052,-11.409642 5.8412,-0.777555 32.04686,-2.54514 50.79408,-3.426087 23.71724,-1.114492 84.98533,-0.457689 102.77824,1.101799 33.31223,2.919702 46.80506,6.564791 51.24326,13.843368 1.81112,2.970221 1.7787,4.928598 -0.12161,7.344451 -5.07345,6.449851 -26.23965,10.830109 -62.0911,12.849496 -18.49446,1.041729 -68.36007,1.470175 -89.21821,0.766564 z"
       id="path820"
       inkscape:connector-curvature="0"
       transform="translate(232.78988,215.75111)" />
    <path
       style="fill:#ffffff;fill-opacity:1;stroke:none;stroke-width:29.25187111;stroke-linecap:round;stroke-linejoin:round;stroke-miterlimit:4;stroke-dasharray:none;stroke-opacity:1;paint-order:markers stroke fill"
       d="m 355.06445,-304.42761 c -7.34332,-3.72193 -10.38714,-10.19675 -8.97952,-19.10126 1.39323,-8.81351 7.57719,-13.86078 16.98236,-13.86078 11.76838,0 17.53651,5.77876 17.46025,17.49242 -0.0731,11.23144 -4.95593,16.48139 -16.14588,17.35991 -4.36692,0.34285 -5.27457,0.15871 -9.31721,-1.89029 z"
       id="path822"
       inkscape:connector-curvature="0"
       transform="translate(232.78988,215.75111)" />
    <path
       style="fill:#ffffff;fill-opacity:1;stroke:none;stroke-width:29.25187111;stroke-linecap:round;stroke-linejoin:round;stroke-miterlimit:4;stroke-dasharray:none;stroke-opacity:1;paint-order:markers stroke fill"
       d="m 452.28953,-257.23271 c -7.92189,-2.56962 -11.8448,-7.42681 -12.49,-15.46462 -0.4672,-5.82032 0.95237,-9.98936 4.72362,-13.8725 3.56939,-3.67529 6.48128,-4.75114 12.80772,-4.73206 11.18053,0.0337 16.65234,5.55528 16.65234,16.80377 0,7.91779 -2.7038,13.25794 -8.03717,15.87386 -4.27451,2.09657 -9.75985,2.65551 -13.65651,1.39155 z"
       id="path824"
       inkscape:connector-curvature="0"
       transform="translate(232.78988,215.75111)" />
    <path
       style="fill:#ffffff;fill-opacity:1;stroke:none;stroke-width:29.25187111;stroke-linecap:round;stroke-linejoin:round;stroke-miterlimit:4;stroke-dasharray:none;stroke-opacity:1;paint-order:markers stroke fill"
       d="m 240.34204,-325.60849 c -6.06125,-2.79745 -8.63317,-7.70468 -8.67481,-16.5516 -0.023,-4.88848 0.2713,-6.40886 1.76406,-9.11291 0.98542,-1.78503 2.8815,-3.97957 4.2135,-4.87675 5.12418,-3.45144 14.83226,-3.93523 20.53729,-1.02347 5.41605,2.76428 7.48496,7.03865 7.46653,15.42584 -0.019,8.67029 -2.4914,13.37187 -8.48674,16.13889 -4.00455,1.84822 -12.81528,1.84822 -16.81983,0 z"
       id="path826"
       inkscape:connector-curvature="0"
       transform="translate(232.78988,215.75111)" />
    <path
       style="fill:#ffffff;fill-opacity:1;stroke:none;stroke-width:29.25187111;stroke-linecap:round;stroke-linejoin:round;stroke-miterlimit:4;stroke-dasharray:none;stroke-opacity:1;paint-order:markers stroke fill"
       d="m 128.33681,-302.9877 c -6.0952,-1.45231 -9.85514,-5.53124 -11.23773,-12.19111 -2.07513,-9.99585 2.29623,-19.28073 10.0975,-21.44736 4.01285,-1.11448 11.52062,-0.92527 14.61673,0.36837 6.40411,2.67581 8.91276,7.2973 8.91276,16.41928 0,7.33439 -1.44798,11.26542 -5.19018,14.09054 -4.14785,3.13135 -11.01579,4.23359 -17.19908,2.76028 z"
       id="path828"
       inkscape:connector-curvature="0"
       transform="translate(232.78988,215.75111)" />
    <path
       style="fill:#ffffff;fill-opacity:1;stroke:none;stroke-width:29.25187111;stroke-linecap:round;stroke-linejoin:round;stroke-miterlimit:4;stroke-dasharray:none;stroke-opacity:1;paint-order:markers stroke fill"
       d="m 35.006709,-256.97702 c -8.528101,-2.12206 -12.24117,-7.5393 -12.209395,-17.81306 0.03416,-11.04356 5.574515,-16.52787 16.696769,-16.52787 12.932723,0 20.426803,10.57808 16.664004,23.52165 -1.42387,4.89794 -3.377861,7.51324 -6.990376,9.35621 -3.28878,1.67781 -10.361412,2.40853 -14.161002,1.46307 z"
       id="path830"
       inkscape:connector-curvature="0"
       transform="translate(232.78988,215.75111)" />
  </g>
</svg>
