<?xml version="1.0" encoding="UTF-8" standalone="no"?>
<!-- Created with Inkscape (http://www.inkscape.org/) -->

<svg
   xmlns:dc="http://purl.org/dc/elements/1.1/"
   xmlns:cc="http://creativecommons.org/ns#"
   xmlns:rdf="http://www.w3.org/1999/02/22-rdf-syntax-ns#"
   xmlns:svg="http://www.w3.org/2000/svg"
   xmlns="http://www.w3.org/2000/svg"
   xmlns:sodipodi="http://sodipodi.sourceforge.net/DTD/sodipodi-0.dtd"
   xmlns:inkscape="http://www.inkscape.org/namespaces/inkscape"
   height="75.910744"
   id="svg1"
   inkscape:version="0.92.4 (5da689c313, 2019-01-14)"
   sodipodi:docname="white_pawn.svg"
   sodipodi:version="0.32"
   width="55.383869"
   inkscape:output_extension="org.inkscape.output.svg.inkscape"
   version="1.0"
   inkscape:export-filename="C:\joanna\Gfx\drawings_vector\admin\thumbs\Igor Krizanovskij\chess_set_symbols_igor_k_01_ok.png"
   inkscape:export-xdpi="51.457458"
   inkscape:export-ydpi="51.457458">
  <metadata
     id="metadata3">
    <rdf:RDF>
      <cc:Work
         rdf:about="">
        <dc:title>Chess Set Symbols</dc:title>
        <dc:description />
        <dc:subject>
          <rdf:Bag>
            <rdf:li />
            <rdf:li>game</rdf:li>
            <rdf:li>chess</rdf:li>
            <rdf:li>symbols</rdf:li>
            <rdf:li>board</rdf:li>
            <rdf:li>recreation</rdf:li>
            <rdf:li>fonts</rdf:li>
          </rdf:Bag>
        </dc:subject>
        <dc:publisher>
          <cc:Agent
             rdf:about="http://www.openclipart.org">
            <dc:title>Igor Krizanovskij</dc:title>
          </cc:Agent>
        </dc:publisher>
        <dc:creator>
          <cc:Agent>
            <dc:title>Igor Krizanovskij</dc:title>
          </cc:Agent>
        </dc:creator>
        <dc:rights>
          <cc:Agent>
            <dc:title>Igor Krizanovskij</dc:title>
          </cc:Agent>
        </dc:rights>
        <dc:date />
        <dc:format>image/svg+xml</dc:format>
        <dc:type
           rdf:resource="http://purl.org/dc/dcmitype/StillImage" />
        <cc:license
           rdf:resource="http://web.resource.org/cc/PublicDomain" />
        <dc:language>en</dc:language>
      </cc:Work>
      <cc:License
         rdf:about="http://web.resource.org/cc/PublicDomain">
        <cc:permits
           rdf:resource="http://web.resource.org/cc/Reproduction" />
        <cc:permits
           rdf:resource="http://web.resource.org/cc/Distribution" />
        <cc:permits
           rdf:resource="http://web.resource.org/cc/DerivativeWorks" />
      </cc:License>
    </rdf:RDF>
  </metadata>
  <defs
     id="defs3">
    <inkscape:perspective
       sodipodi:type="inkscape:persp3d"
       inkscape:vp_x="0 : 187.5 : 1"
       inkscape:vp_y="0 : 1000 : 0"
       inkscape:vp_z="1052.3622 : 187.5 : 1"
       inkscape:persp3d-origin="526.18109 : 125 : 1"
       id="perspective20" />
  </defs>
  <sodipodi:namedview
     bordercolor="#666666"
     borderopacity="1.0"
     id="base"
     inkscape:current-layer="layer1"
     inkscape:cx="427.51418"
     inkscape:cy="208.40525"
     inkscape:pageopacity="0.0"
     inkscape:pageshadow="2"
     inkscape:window-height="1001"
     inkscape:window-width="1920"
     inkscape:window-x="-9"
     inkscape:window-y="-9"
     inkscape:zoom="0.40029066"
     pagecolor="#ffffff"
     showgrid="false"
     inkscape:pagecheckerboard="true"
     inkscape:window-maximized="1" />
  <g
     id="layer1"
     inkscape:groupmode="layer"
     inkscape:label="Layer 1"
     transform="translate(-921.42487,-223.23889)">
    <path
       d="m 1378.3082,252.64748 c -9e-4,-81.37857 -22.0894,-142.21885 -66.2656,-182.520649 -14.7265,-13.950734 -32.9399,-27.126312 -54.6398,-39.526825 -30.2273,-17.825792 -45.3405,-34.1016334 -45.3396,-48.827253 -9e-4,-7.750388 7.7493,-16.275661 23.251,-25.57609 24.0251,-13.175668 38.3633,-28.676444 43.0146,-46.502327 1.549,-6.975141 2.3241,-15.500416 2.325,-25.575996 -9e-4,-35.65159 -18.2142,-63.55288 -54.6401,-83.70378 l -20.9258,-15.11319 c -3.8763,-3.87506 -5.8138,-8.13788 -5.8128,-12.78818 -10e-4,-13.17549 4.6491,-26.35116 13.9506,-39.52674 6.1993,-8.52527 9.2995,-18.60086 9.3004,-30.22639 -9e-4,-20.15072 -10.8514,-34.87643 -32.5514,-44.17695 -6.9763,-2.3252 -13.9516,-3.48766 -20.926,-3.48766 -21.702,0 -37.2026,9.688 -46.5021,29.06375 -3.101,6.20034 -4.6512,12.40069 -4.6503,18.60086 -9e-4,6.97541 5.0369,20.1509 15.1132,39.52691 6.1994,10.85038 8.912,20.92597 8.1381,30.22622 0,9.30042 -8.9141,18.60085 -26.7388,27.90137 -35.6527,20.92588 -53.4786,48.82726 -53.4774,83.70378 0,30.226391 15.112,54.25253 45.3394,72.078323 14.7247,10.075315 22.0876,18.600858 22.0886,25.57609 -10e-4,14.7256196 -15.1142,31.001461 -45.3397,48.827253 -55.8024,34.101454 -91.45403,75.565984 -106.95472,124.393154 -8.52536,27.12613 -12.78809,59.67772 -12.78809,97.65432 h 415.03131 m -455.72069,46.50215 c -0.77506,-9.30043 -1.16264,-27.12613 -1.16264,-53.47738 0,-95.32922 27.90138,-166.632478 83.70383,-213.9096 18.6009,-15.500775 42.2386,-30.6139728 70.9157,-45.339592 -29.4513,-9.30043 -49.2146,-31.776617 -59.2901,-67.428202 -3.8751,-11.625537 -5.8128,-23.638566 -5.8128,-36.039166 0,-51.92724 26.3512,-89.12905 79.0536,-111.60488 -12.4015,-22.47619 -18.6018,-44.56452 -18.6008,-66.26565 -10e-4,-35.65158 17.4373,-62.00274 52.3147,-79.05346 14.7248,-6.97542 30.6131,-10.46308 47.6647,-10.46308 39.5259,0 68.5897,15.1132 87.1915,45.3396 8.5245,13.17566 12.7872,27.90128 12.7881,44.17694 -9e-4,20.92597 -6.9763,43.01458 -20.9259,66.26565 53.4765,21.70094 80.2152,58.90257 80.2162,111.60488 0,41.077048 -15.1142,72.078329 -45.3397,93.004295 -6.2012,4.650304 -13.1766,8.137965 -20.926,10.463073 69.7523,35.651585 115.0918,80.991177 136.0189,136.018502 13.1746,34.10164 19.7624,75.1785 19.7633,123.23069 -9e-4,25.57609 -0.3885,43.40188 -1.1626,53.47738 H 922.58751"
       id="path1688"
       style="font-style:normal;font-weight:normal;font-size:12px;font-family:'Bitstream Vera Sans';fill:#000000;fill-opacity:1;stroke:#ffffff;stroke-width:40;stroke-linecap:round;stroke-linejoin:round;stroke-opacity:1;stroke-miterlimit:4;stroke-dasharray:none;paint-order:markers stroke fill"
       inkscape:connector-curvature="0"
       inkscape:export-xdpi="51.457458"
       inkscape:export-ydpi="51.457458" />
    <path
       style="fill:#ffffff;fill-opacity:1;stroke:none;stroke-width:99.92739105;stroke-linecap:round;stroke-linejoin:round;stroke-miterlimit:4;stroke-dasharray:none;stroke-opacity:1;paint-order:markers stroke fill"
       d="m 43.308099,13.274575 c 0.03844,-40.751763 12.518007,-89.937297 30.583279,-120.537415 14.700073,-24.89993 49.775262,-59.14996 81.820302,-79.89547 37.33004,-24.16693 52.46188,-39.58138 52.46188,-53.44166 0,-7.03329 -10.21581,-18.23917 -28.56367,-31.33193 -28.46713,-20.31372 -40.55211,-43.58096 -38.23671,-73.6172 2.45239,-31.81332 17.602,-53.54383 53.5627,-76.83001 11.2683,-7.29673 21.667,-15.4701 23.10821,-18.16304 5.21264,-9.7399 2.76082,-23.12748 -8.89089,-48.54663 -13.26013,-28.92804 -13.73938,-39.65979 -2.52766,-56.60184 22.07622,-33.35943 80.25826,-24.35097 91.59367,14.18165 3.85547,13.10597 0.48204,28.23237 -9.97286,44.71804 -8.85422,13.96164 -13.53072,33.31179 -10.1804,42.12381 1.33354,3.50748 10.7957,11.96854 21.71837,19.42056 42.01792,28.66685 55.01832,46.72576 57.52824,79.91276 2.70084,35.71141 -6.73742,52.81693 -41.93837,76.00743 -19.9515,13.14412 -24.76053,18.93983 -24.76053,29.84079 0,15.91236 11.8242,26.88744 66.20189,61.44767 41.12607,26.13806 71.38156,65.9631 86.03281,113.244213 6.47919,20.909007 12.61036,59.4109045 12.63075,79.317364 l 0.0147,14.364562 H 249.39361 43.293372 l 0.01474,-15.613654 z"
       id="path814"
       inkscape:connector-curvature="0"
       transform="translate(921.42487,223.23889)" />
  </g>
</svg>
