<?xml version="1.0" encoding="UTF-8" standalone="no"?>
<!-- Created with Inkscape (http://www.inkscape.org/) -->

<svg
   xmlns:dc="http://purl.org/dc/elements/1.1/"
   xmlns:cc="http://creativecommons.org/ns#"
   xmlns:rdf="http://www.w3.org/1999/02/22-rdf-syntax-ns#"
   xmlns:svg="http://www.w3.org/2000/svg"
   xmlns="http://www.w3.org/2000/svg"
   xmlns:sodipodi="http://sodipodi.sourceforge.net/DTD/sodipodi-0.dtd"
   xmlns:inkscape="http://www.inkscape.org/namespaces/inkscape"
   height="575.42853"
   id="svg1"
   inkscape:version="0.92.4 (5da689c313, 2019-01-14)"
   sodipodi:docname="white_king.svg"
   sodipodi:version="0.32"
   width="533.11328"
   inkscape:output_extension="org.inkscape.output.svg.inkscape"
   version="1.0"
   inkscape:export-filename="C:\Users\teong\Documents\Programming\Chess\img\white_king.png"
   inkscape:export-xdpi="51.457458"
   inkscape:export-ydpi="51.457458">
  <metadata
     id="metadata3">
    <rdf:RDF>
      <cc:Work
         rdf:about="">
        <dc:title>Chess Set Symbols</dc:title>
        <dc:description />
        <dc:subject>
          <rdf:Bag>
            <rdf:li />
            <rdf:li>game</rdf:li>
            <rdf:li>chess</rdf:li>
            <rdf:li>symbols</rdf:li>
            <rdf:li>board</rdf:li>
            <rdf:li>recreation</rdf:li>
            <rdf:li>fonts</rdf:li>
          </rdf:Bag>
        </dc:subject>
        <dc:publisher>
          <cc:Agent
             rdf:about="http://www.openclipart.org">
            <dc:title>Igor Krizanovskij</dc:title>
          </cc:Agent>
        </dc:publisher>
        <dc:creator>
          <cc:Agent>
            <dc:title>Igor Krizanovskij</dc:title>
          </cc:Agent>
        </dc:creator>
        <dc:rights>
          <cc:Agent>
            <dc:title>Igor Krizanovskij</dc:title>
          </cc:Agent>
        </dc:rights>
        <dc:date />
        <dc:format>image/svg+xml</dc:format>
        <dc:type
           rdf:resource="http://purl.org/dc/dcmitype/StillImage" />
        <cc:license
           rdf:resource="http://web.resource.org/cc/PublicDomain" />
        <dc:language>en</dc:language>
      </cc:Work>
      <cc:License
         rdf:about="http://web.resource.org/cc/PublicDomain">
        <cc:permits
           rdf:resource="http://web.resource.org/cc/Reproduction" />
        <cc:permits
           rdf:resource="http://web.resource.org/cc/Distribution" />
        <cc:permits
           rdf:resource="http://web.resource.org/cc/DerivativeWorks" />
      </cc:License>
    </rdf:RDF>
  </metadata>
  <defs
     id="defs3">
    <inkscape:perspective
       sodipodi:type="inkscape:persp3d"
       inkscape:vp_x="0 : 187.5 : 1"
       inkscape:vp_y="0 : 1000 : 0"
       inkscape:vp_z="1052.3622 : 187.5 : 1"
       inkscape:persp3d-origin="526.18109 : 125 : 1"
       id="perspective20" />
  </defs>
  <sodipodi:namedview
     bordercolor="#666666"
     borderopacity="1.0"
     id="base"
     inkscape:current-layer="layer1"
     inkscape:cx="-562.98659"
     inkscape:cy="296.66456"
     inkscape:pageopacity="0.0"
     inkscape:pageshadow="2"
     inkscape:window-height="1001"
     inkscape:window-width="1920"
     inkscape:window-x="-9"
     inkscape:window-y="-9"
     inkscape:zoom="0.68371695"
     pagecolor="#ffffff"
     showgrid="false"
     inkscape:pagecheckerboard="true"
     fit-margin-top="0"
     fit-margin-left="0"
     fit-margin-right="0"
     fit-margin-bottom="0"
     inkscape:window-maximized="1" />
  <g
     id="layer1"
     inkscape:groupmode="layer"
     inkscape:label="Layer 1"
     transform="translate(-50.539484,256.27692)">
    <path
       d="m 317.09611,299.14963 c -107.95325,0 -162.74363,-18.1729 -164.37105,-54.51909 C 150.01263,194.72254 141.60421,157.02026 127.4998,131.5237 121.53255,121.21663 113.12412,108.73963 102.27452,94.092697 83.830265,69.681198 73.523172,49.067011 71.353253,32.250136 c -0.542506,-4.339813 -0.813769,-8.95097 -0.813769,-13.833282 0,-34.176061 14.375675,-61.028716 43.127016,-80.558029 7.05228,-4.339875 14.37568,-7.865969 21.97046,-10.578344 28.75134,-10.307125 57.23143,-8.679687 85.4404,4.882376 10.30706,4.882186 20.61415,11.391936 30.92123,19.529123 l 0.81378,0.813782 c 0,-11.392125 0.5424,-23.597843 1.62744,-36.617217 0,-3.797501 1.89861,-8.950969 5.69599,-15.460782 8.67969,-14.104373 18.98675,-25.225283 30.92125,-33.362403 2.16987,-1.085 4.33981,-2.44122 6.50975,-4.0686 v -19.52925 l -33.36241,-19.52918 v -29.29381 h 30.1076 l 10.57834,-30.92144 h 24.4115 l 10.57834,30.92144 h 30.1076 v 29.29381 l -33.36241,19.52918 v 19.52925 c 28.20887,17.90175 42.58453,35.80357 43.12697,53.705378 1.08493,10.849562 1.62744,22.784124 1.62744,35.803624 l 0.81378,-0.813782 c 34.17612,-28.751374 69.97975,-37.973436 107.41074,-27.666311 9.76469,2.712249 18.98682,6.780843 27.66644,12.205781 30.37875,18.444187 45.83947,45.839405 46.38203,82.185404 0,21.69925 -10.84962,47.466968 -32.54881,77.303217 -17.90181,24.953999 -29.02259,43.127159 -33.36247,54.519159 -9.222,24.41143 -14.64694,55.87525 -16.27431,94.39131 -1.08487,36.34619 -55.87531,54.51909 -164.37106,54.51909 m 0,-274.223026 23.59784,-37.430999 c 3.79738,-8.137188 6.78091,-15.731875 8.95078,-22.784125 1.08507,-3.797312 1.62757,-11.663218 1.62757,-23.597843 0,-32.006124 -11.12085,-48.009407 -33.3626,-48.009407 -23.3265,0 -34.98984,16.003283 -34.98984,48.009407 0,11.934625 0.5425,19.800531 1.62744,23.597843 4.33981,14.646937 13.562,32.0063126 27.66644,52.077936 3.25493,3.797376 4.88237,6.50975 4.88237,8.137188 m 217.26278,-1.627438 c 0,-24.4114988 -8.13713,-43.126967 -24.41169,-56.146467 -13.56187,-11.392125 -29.5649,-17.088093 -48.00934,-17.088093 -23.32644,0 -48.55178,11.934436 -75.67572,35.803561 -32.00625,27.666438 -50.17928,65.0975 -54.51915,112.293123 0,3.79731 10.03584,8.13712 30.10753,13.0195 23.32662,4.33988 62.92756,6.50975 118.80287,6.50975 l 36.61734,-48.823124 c 11.39206,-17.359249 17.08816,-32.548687 17.08816,-45.56825 M 317.09611,133.15113 c -13.56206,5.96738 -54.79044,11.12085 -123.6852,15.46066 -10.30709,0.54256 -18.71552,1.08494 -25.22528,1.62744 5.42487,20.61418 8.95095,43.39825 10.57835,68.35231 37.43102,-11.93456 83.54169,-17.90175 138.33213,-17.90175 55.87525,0 101.986,5.96719 138.33212,17.90175 1.62744,-27.12394 5.15353,-49.90806 10.57835,-68.35231 L 345.57614,140.4746 c -10.30706,-1.62737 -19.8004,-4.06853 -28.48003,-7.32347 M 99.833346,23.299166 c 0,16.816938 13.290774,42.313438 39.872204,76.489499 6.50975,8.137185 11.12085,14.104565 13.83316,17.901875 h 14.64692 c 55.87531,0 96.56126,-3.79731 122.05776,-11.39213 8.13719,-2.16987 12.20578,-4.88218 12.20578,-8.13712 -4.33987,-47.195623 -22.5129,-84.626685 -54.51911,-112.293123 -26.58145,-23.869125 -51.80672,-35.803561 -75.67585,-35.803561 -7.59465,0 -15.73182,1.627374 -24.4115,4.882312 -21.6992,5.42475 -36.34613,19.800406 -43.94078,43.1270305 L 99.833346,20.044354 v 3.254812 M 317.09611,269.85582 c 50.99294,0 86.25419,-3.25494 105.78337,-9.76456 4.88232,-1.62757 7.32347,-3.52622 7.32347,-5.69616 0,-14.10444 -37.431,-21.15662 -112.29325,-21.15662 -28.75131,0 -56.6889,1.89878 -83.8128,5.69609 -20.07182,3.25481 -30.10764,8.40841 -30.10764,15.46053 0,8.13719 32.00628,13.29084 96.01876,15.46072 6.50975,0 12.20572,0 17.08809,0"
       id="path1721"
       style="font-style:normal;font-weight:normal;font-size:12px;font-family:'Bitstream Vera Sans';fill:#000000;fill-opacity:1;stroke:#ffffff;stroke-width:40;stroke-linecap:round;stroke-linejoin:round;stroke-miterlimit:4;stroke-dasharray:none;stroke-opacity:1;paint-order:markers stroke fill"
       inkscape:connector-curvature="0" />
    <path
       style="fill:#ffffff;fill-opacity:1;stroke:none;stroke-width:58.50374222;stroke-linecap:round;stroke-linejoin:round;stroke-miterlimit:4;stroke-dasharray:none;stroke-opacity:1;paint-order:markers stroke fill"
       d="m 72.375939,-111.36171 c -21.476506,-27.85292 -35.319576,-50.83344 -39.884975,-66.21202 -2.965468,-9.9892 -2.963878,-15.86061 0.0082,-30.29256 6.56716,-31.88906 24.623737,-48.12792 60.811894,-54.69008 17.436102,-3.16177 39.393982,3.17978 61.992872,17.90387 16.47735,10.73565 43.2601,38.07341 52.37602,53.46139 12.16794,20.53985 22.75416,53.83537 22.80877,71.73753 0.0183,6.01131 -0.26399,6.42303 -6.1968,9.03675 -15.66347,6.90059 -53.30256,11.471192 -104.20979,12.65446 l -36.564844,0.849883 z"
       id="path816"
       inkscape:connector-curvature="0"
       transform="translate(70.539484,214.20189)" />
    <path
       style="fill:#ffffff;fill-opacity:1;stroke:none;stroke-width:58.50374222;stroke-linecap:round;stroke-linejoin:round;stroke-miterlimit:4;stroke-dasharray:none;stroke-opacity:1;paint-order:markers stroke fill"
       d="m 243.13311,-197.05328 c -7.82341,-10.29505 -19.91644,-30.94946 -24.41573,-41.70109 -3.89018,-9.29612 -4.86092,-13.82887 -5.43412,-25.37398 -1.62289,-32.68775 7.12591,-51.23269 26.08817,-55.29936 27.56703,-5.91207 42.71656,14.94695 40.46974,55.72181 -0.65139,11.82132 -1.60238,16.06783 -5.74315,25.64538 -4.209,9.73535 -25.35291,45.76067 -26.85777,45.76067 -0.2722,0 -2.12041,-2.13905 -4.10714,-4.75343 z"
       id="path818"
       inkscape:connector-curvature="0"
       transform="translate(70.539484,214.20189)" />
    <path
       style="fill:#ffffff;fill-opacity:1;stroke:none;stroke-width:58.50374222;stroke-linecap:round;stroke-linejoin:round;stroke-miterlimit:4;stroke-dasharray:none;stroke-opacity:1;paint-order:markers stroke fill"
       d="m 338.73986,-98.847088 c -35.81775,-2.002572 -52.53255,-4.879112 -69.10754,-11.893062 -6.53796,-2.76665 -6.94732,-3.26447 -6.94732,-8.44857 0,-8.17921 3.98928,-27.70632 8.28855,-40.57161 10.75572,-32.18579 31.25382,-59.07508 61.66033,-80.88568 15.95623,-11.4454 29.89116,-17.99649 44.86471,-21.09179 38.92737,-8.04699 77.03051,16.51259 83.98501,54.13299 5.05691,27.35537 -0.87098,42.58705 -33.49152,86.05624 l -18.24842,24.317297 -24.89809,-0.215046 c -13.69396,-0.11828 -34.44152,-0.748628 -46.10571,-1.400769 z"
       id="path820"
       inkscape:connector-curvature="0"
       transform="translate(70.539484,214.20189)" />
    <path
       style="fill:#ffffff;fill-opacity:1;stroke:none;stroke-width:58.50374222;stroke-linecap:round;stroke-linejoin:round;stroke-miterlimit:4;stroke-dasharray:none;stroke-opacity:1;paint-order:markers stroke fill"
       d="m 109.11268,3.1747556 c 0,-4.8374126 -5.20207,-41.6534636 -7.31587,-51.7757926 -1.60931,-7.706489 -2.760632,-14.166168 -2.558501,-14.354844 0.202131,-0.188674 11.227271,-1.083407 24.500301,-1.988295 59.81923,-4.078167 94.81925,-7.999296 113.97288,-12.768636 8.57542,-2.135316 10.0467,-2.138189 16.81983,-0.03285 12.29817,3.822733 23.94448,5.215056 82.73096,9.890525 30.96218,2.462518 56.47723,4.65967 56.70013,4.88256 0.22288,0.222891 -0.89147,5.93375 -2.47633,12.690799 -2.61217,11.136917 -4.18897,21.820496 -6.67619,45.2341788 L 383.95109,3.03695 364.63631,-1.8117801 C 329.02745,-10.750931 305.34139,-13.042458 248.05906,-13.090142 c -33.45973,-0.02785 -55.63331,0.611414 -65.8167,1.897503 -23.20287,2.9303533 -46.07752,7.1260662 -60.33199,11.06621713 -7.03873,1.94561067 -12.79769,3.43114067 -12.79769,3.30117747 z"
       id="path822"
       inkscape:connector-curvature="0"
       transform="translate(70.539484,214.20189)" />
    <path
       style="fill:#ffffff;fill-opacity:1;stroke:none;stroke-width:58.50374222;stroke-linecap:round;stroke-linejoin:round;stroke-miterlimit:4;stroke-dasharray:none;stroke-opacity:1;paint-order:markers stroke fill"
       d="m 204.18126,54.017136 c -35.01557,-2.942642 -44.53496,-4.003985 -53.38467,-5.952001 -11.03724,-2.429541 -16.81982,-5.29084 -16.81982,-8.322678 0,-3.039559 6.13954,-7.981249 12.86313,-10.353467 32.72465,-11.545929 159.63258,-12.58859 195.85274,-1.609105 8.1053,2.456974 16.52353,8.485933 16.52353,11.833793 0,4.299569 -12.74255,8.254824 -38.02743,11.80362 -14.62061,2.052041 -100.75283,3.965847 -117.00748,2.599838 z"
       id="path824"
       inkscape:connector-curvature="0"
       transform="translate(70.539484,214.20189)" />
  </g>
</svg>
